<?xml version="1.0" encoding="iso-8859-1"?>
<!-- Generator: Adobe Illustrator 19.0.0, SVG Export Plug-In . SVG Version: 6.00 Build 0)  -->
<svg version="1.1" id="Capa_1" xmlns="http://www.w3.org/2000/svg" xmlns:xlink="http://www.w3.org/1999/xlink" x="0px" y="0px"
	 viewBox="0 0 464.065 464.065" style="enable-background:new 0 0 464.065 464.065;" xml:space="preserve">
<path style="fill:#87CED9;" d="M207.769,163.792L196.345,329.52c-34.536,19.71-46.555,63.685-26.845,98.221
	s63.685,46.555,98.221,26.845s46.555-63.685,26.845-98.221c-6.386-11.189-15.656-20.459-26.845-26.845l-11.424-165.728
	C240.516,158.736,223.55,158.736,207.769,163.792L207.769,163.792z"/>
<g>
	<circle style="fill:#59B3C2;" cx="232.033" cy="392" r="40"/>
	<path style="fill:#59B3C2;" d="M232.033,160c-8.235,0.004-16.42,1.283-24.264,3.792l-2.264,32.88c0.8-0.272,1.488-0.632,2.264-0.88
		c15.781-5.056,32.747-5.056,48.528,0c0.8,0.248,1.496,0.608,2.264,0.88l-2.264-32.88C248.453,161.283,240.268,160.004,232.033,160
		L232.033,160z"/>
</g>
<path style="fill:#4398D1;" d="M120.033,0v216h35.672c13.232-42.155,58.132-65.601,100.287-52.369
	c24.972,7.839,44.53,27.397,52.369,52.369h35.672V0H120.033z"/>
<g>
	<path style="fill:#2A7DB8;" d="M120.033,24h224v16h-224V24z"/>
	<path style="fill:#2A7DB8;" d="M120.033,56h224v16h-224V56z"/>
	<circle style="fill:#2A7DB8;" cx="232.033" cy="112" r="16"/>
	<circle style="fill:#2A7DB8;" cx="232.033" cy="392" r="16"/>
</g>
<g>
</g>
<g>
</g>
<g>
</g>
<g>
</g>
<g>
</g>
<g>
</g>
<g>
</g>
<g>
</g>
<g>
</g>
<g>
</g>
<g>
</g>
<g>
</g>
<g>
</g>
<g>
</g>
<g>
</g>
</svg>
